<?xml version="1.0" encoding="UTF-8" standalone="no"?>
<!-- Created with Inkscape (http://www.inkscape.org/) -->

<svg
   xmlns:dc="http://purl.org/dc/elements/1.1/"
   xmlns:cc="http://creativecommons.org/ns#"
   xmlns:rdf="http://www.w3.org/1999/02/22-rdf-syntax-ns#"
   xmlns:svg="http://www.w3.org/2000/svg"
   xmlns="http://www.w3.org/2000/svg"
   xmlns:sodipodi="http://sodipodi.sourceforge.net/DTD/sodipodi-0.dtd"
   xmlns:inkscape="http://www.inkscape.org/namespaces/inkscape"
   id="svg3336"
   version="1.1"
   inkscape:version="0.91 r13725"
   xml:space="preserve"
   width="560.71252"
   height="714.76251"
   viewBox="0 0 560.71252 714.76251"
   sodipodi:docname="portait.svg"><metadata
     id="metadata3342"><rdf:RDF><cc:Work
         rdf:about=""><dc:format>image/svg+xml</dc:format><dc:type
           rdf:resource="http://purl.org/dc/dcmitype/StillImage" /><dc:title></dc:title></cc:Work></rdf:RDF></metadata><defs
     id="defs3340" /><sodipodi:namedview
     pagecolor="#ffffff"
     bordercolor="#666666"
     borderopacity="1"
     objecttolerance="10"
     gridtolerance="10"
     guidetolerance="10"
     inkscape:pageopacity="0"
     inkscape:pageshadow="2"
     inkscape:window-width="1920"
     inkscape:window-height="1138"
     id="namedview3338"
     showgrid="false"
     inkscape:zoom="0.92003889"
     inkscape:cx="-113.11844"
     inkscape:cy="355.14406"
     inkscape:window-x="-8"
     inkscape:window-y="-8"
     inkscape:window-maximized="1"
     inkscape:current-layer="g3346" /><g
     id="g3344"
     inkscape:groupmode="layer"
     inkscape:label="portait"
     transform="matrix(1.25,0,0,-1.25,0,714.7625)"><g
       id="g3346"
       transform="scale(0.1,0.1)"><path
         d="m 398.203,3009.1 c 6.317,66.89 13.231,133.73 20.738,200.51 2.887,25.67 5.891,51.46 13.832,76.06 17.239,53.4 55.786,96.28 82.981,145.2 41.129,73.99 55.074,158.68 69.141,242.01 13.152,77.92 26.839,156.03 27.66,235.08 0.597,57.86 -5.66,116.29 6.91,172.86 9.976,44.92 31.473,86.47 41.488,131.38 10.485,47 13.07,101.49 55.309,124.46 22.449,12.2 50.176,10 69.152,-6.91 16.445,-14.67 22.031,-37.36 34.57,-55.32 9.942,-14.25 24.313,-25.32 41.489,-27.65 28.859,-3.93 52.972,16.67 76.05,34.57 34.43,26.69 72.567,48 110.637,69.13 66.89,37.13 134.33,74.09 207.43,96.81 69.63,21.63 142.43,29.71 214.34,41.49 68.93,11.29 137.57,26.07 207.45,27.66 70.69,1.6 141,-10.33 207.42,-34.57 83.44,-30.46 158.76,-79.66 242,-110.63 62.15,-23.13 127.58,-35.7 193.61,-41.49 39.13,-3.43 78.51,-4.48 117.54,0 48.2,5.53 95.09,19.41 138.29,41.49 34.14,17.44 66.2,40.07 103.72,48.4 23.36,5.18 48.08,4.39 69.14,-6.93 23.93,-12.84 38.88,-36.76 48.4,-62.23 10.01,-26.75 14.39,-55.14 20.75,-82.96 15.32,-66.97 42.05,-130.52 69.14,-193.6 23.65,-55.07 47.64,-110.01 69.14,-165.96 41.61,-108.25 74.34,-221.08 138.29,-318.05 37.82,-57.35 86.2,-108.48 110.63,-172.86 20.03,-52.77 22.19,-109.88 27.66,-165.95 10.86,-111.32 35.37,-220.82 48.4,-331.89 11.85,-100.98 14.17,-202.84 6.92,-304.25 l 0,0 c 17.27,52.67 33.41,105.69 48.4,159.05 17.56,62.49 33.57,125.49 55.31,186.68 23.53,66.2 53.59,129.8 82.97,193.61 15.96,34.65 31.74,69.39 48.41,103.71 7.34,15.09 15.05,30.35 27.65,41.49 20.67,18.25 49.28,21.61 76.06,27.66 20.61,4.64 41.48,11.23 62.23,6.91 47.17,-9.84 66.44,-61.43 76.06,-110.63 10.72,-54.78 17.65,-110.22 20.74,-165.94 l 0,0 c 16.48,14.83 28.47,34 34.58,55.3 13.08,45.56 -1.52,92.67 -13.83,138.3 -10.32,38.29 -19.25,77.68 -41.49,110.63 -16.92,25.07 -40.73,44.92 -69.14,55.32 -29.02,10.62 -60.86,10.62 -89.89,0 l 0,0 c 14.54,61.32 23.79,123.78 27.66,186.68 10.46,169.89 -18.17,338.79 -55.32,504.75 -41.54,185.61 -94.06,369.42 -179.77,539.32 -118.55,235.03 -297.07,436.1 -525.5,566.99 -190.69,109.26 -405.89,163.37 -622.3,200.51 -203.51,34.94 -410.6,55.44 -615.38,27.66 -209.94,-28.47 -409.57,-106.64 -587.72,-221.25 -140.797,-90.58 -266.148,-202.57 -380.297,-324.98 -115.265,-123.61 -219.215,-258 -297.32,-407.95 -79.777,-153.17 -130.965,-319.53 -152.109,-490.92 -15.278,-123.83 -14.684,-248.89 -6.922,-373.38 7.289,-116.87 20.957,-233.72 55.32,-345.72 29.508,-96.17 73.828,-187.15 131.371,-269.66 l 0,0"
         style="fill:#000000;fill-opacity:1;fill-rule:nonzero;stroke:none"
         id="path3348"
         inkscape:connector-curvature="0" /><path
         d="m 1524.52,3094.13 c 12.81,27.12 14.53,58.16 4.81,86.54 -10.97,32.03 -35.05,57.13 -62.51,76.93 -61.68,44.47 -137.07,62.23 -211.55,76.93 -65.68,12.96 -131.74,24.05 -197.13,38.45 -38.38,8.46 -76.538,18.06 -115.386,24.05 -21.227,3.27 -43.508,5.23 -62.512,-4.8 -16.258,-8.59 -26.699,-24.43 -38.461,-38.47 -42.511,-50.78 -106.621,-81.52 -139.437,-139.43 -12.59,-22.22 -19.563,-47 -24.039,-72.12 -5.938,-33.32 -7.551,-67.25 -4.801,-100.98 l 0,0 c 28.957,25.88 59.465,49.96 91.348,72.13 39.578,27.51 81.199,52.01 125.011,72.12 44.211,20.29 90.805,36.07 139.427,38.47 60.44,2.97 119.15,-14.91 177.9,-28.85 60.92,-14.47 122.86,-24.79 182.7,-43.28 46.78,-14.46 91.9,-33.8 134.63,-57.69 l 0,0 z m 307.71,4.81 c 25.23,16.68 50.88,32.71 76.93,48.08 42.03,24.78 85.09,47.82 129.82,67.31 69.8,30.41 142.98,51.92 216.36,72.12 50.48,13.89 101.48,27.23 153.86,28.85 56.95,1.75 113.02,-10.41 168.28,-24.04 58.15,-14.35 115.87,-30.39 173.09,-48.08 l 0,0 c -9.64,25.6 -22.57,49.85 -38.47,72.12 -19.17,26.86 -42.39,50.49 -67.31,72.12 -30.08,26.1 -62.63,49.31 -91.35,76.93 -20.27,19.5 -39.8,41.72 -67.31,48.08 -12.62,2.91 -25.68,2.01 -38.47,0 -24.62,-3.88 -48.34,-11.78 -72.12,-19.23 -49.36,-15.49 -99.28,-29.15 -149.05,-43.28 -49.4,-14.03 -98.93,-28.63 -144.24,-52.89 -31.5,-16.87 -60.4,-38.14 -86.54,-62.5 -24.87,-23.19 -47.11,-49.07 -72.12,-72.12 -19.2,-17.7 -39.99,-33.69 -57.7,-52.89 -11.84,-12.85 -22.24,-27.09 -28.85,-43.27 -8.72,-21.36 -10.4,-44.94 -4.81,-67.31 l 0,0"
         style="fill:#000000;fill-opacity:1;fill-rule:nonzero;stroke:none"
         id="path3350"
         inkscape:connector-curvature="0" /><path
         d="m 3789.1,2945.07 c -6.19,-46.5 -12.6,-92.98 -19.22,-139.43 -10.11,-70.86 -21.01,-142.53 -52.9,-206.75 -24.76,-49.87 -61.12,-92.71 -91.35,-139.43 -32.71,-50.54 -58.62,-106.08 -100.97,-149.04 -29.2,-29.63 -64.76,-51.73 -100.97,-72.12 -18.24,-10.28 -36.8,-20.23 -52.89,-33.66 -15.91,-13.29 -28.98,-29.64 -38.46,-48.09 -9.3,-18.11 -14.91,-37.8 -19.23,-57.69 -7.54,-34.74 -11.21,-70.25 -9.62,-105.77 2.06,-45.69 12.76,-90.35 24.05,-134.63 16.4,-64.44 34.08,-128.55 52.88,-192.32 20.43,-69.28 42.33,-138.49 76.93,-201.94 13.31,-24.41 28.96,-48.3 52.89,-62.5 27.4,-16.27 60.5,-16.68 91.35,-24.04 41.42,-9.89 78.25,-32.21 115.39,-52.89 58.25,-32.45 118.38,-61.32 177.9,-91.35 126.25,-63.71 249.76,-132.69 370.22,-206.75 l 0,0 14.42,-764.482 -1735.7,0 0,0 c 46.07,26.96 90.98,55.835 134.63,86.546 82.14,57.797 159.56,121.911 235.59,187.512 106.64,92 192.5445,162.76202 279.6545,273.50802 56.39,71.683 147.9495,185.94097 196.8995,262.87298 49.17,77.26 74.256,141.893 124.456,218.483 l 0,0 c -29.73,28.13 -57.07,58.69 -81.74,91.35 -23.9,31.67 -45.23,65.25 -62.51,100.98 -24.35,50.35 -40.3,104.18 -52.88,158.66 -16.9,73.2 -27.78,147.65 -43.28,221.17 -5.77,27.39 -12.18,54.64 -19.23,81.74 l 0,0 c -8.63,-33.94 -18.25,-67.6 -28.85,-100.97 -25.28,-79.61 -56.12,-157.47 -96.16,-230.79 -38.21,-69.99 -84.45,-135.17 -134.61,-197.13 -40.74,-50.31 -84.04,-98.49 -129.83,-144.24 -36.92,-36.9 -75.42,-72.19 -115.39,-105.77 l 0,0 c -19.02,-40.17 -38.26,-80.24 -57.69,-120.22 C 2647.7,953.027 2601.38,860.645 2548.63,771.848 2484,663.035 2410,560.074 2327.46,464.125 l 0,0 c 37.53,75.074 77.62,148.844 120.2,221.172 35.71,60.656 73.18,120.32 105.78,182.711 37.02,70.836 67.59,144.852 91.35,221.172 l 0,0 c -30.57,-23.89 -61.02,-47.93 -91.35,-72.13 -45.62,-36.394 -91.01,-73.183 -139.44,-105.773 -39.95,-26.886 -81.81,-50.804 -125,-72.121 -61.56,-30.39 -125.71,-55.437 -192.33,-72.121 -77,-19.281 -156.25,-27.137 -235.59,-28.847 -59.47,-1.286 -119.04,0.882 -177.9,9.617 -47.38,7.035 -94.05,18.297 -139.43,33.652 l 0,0 c 26.23,-20.109 51.88,-40.953 76.93,-62.5 40.43,-34.769 79.27,-71.367 115.39,-110.59 46.57,-50.566 88.41,-105.285 125.01,-163.472 l 0,0 c -39.65,37.308 -79.72,74.171 -120.2,110.582 -34.64,31.16 -69.59,61.996 -105.78,91.359 -47.81,38.805 -97.74,74.996 -144.24,115.391 -42.81,37.199 -82.53,77.804 -125.01,115.39 -24.75,21.906 -50.42,42.758 -76.93,62.508 l 0,0 c 33.25,-71.926 62.15,-145.781 86.55,-221.168 27.67,-85.484 31.0345,-148.10502 53.6745,-235.04702 17.15,-65.839 102.4135,-156.14398 120.5235,-221.72198 l 6.1485,0 -1122.7225,4.808 0,0 c 70.715,28.367 141.238,57.215 211.558,86.551 82.957,34.605 165.664,69.891 250.012,100.969 85.227,31.402 172.136,58.515 254.826,96.16 34.19,15.566 67.78,33.035 96.16,57.691 16.77,14.563 31.62,31.746 38.48,52.891 7.04,21.738 30.8559,49.33164 26.0859,71.65564 -15.59,72.782 -43.2571,123.89508 -68.7071,193.70708 -19.34,53.075 -69.7188,119.31928 -106.4388,162.55928 -27.59,32.48 -40.1041,61.1653 -74.8841,85.6253 -42.9859,66.7147 -97.01969,110.4322 -146.56669,169.8722 -45.676,54.81 -103.13126,137.9382 -137.03326,200.7682 -34.559,64.03 -46.92226,94.1785 -72.51926,162.2385 -27.348,72.71 -69.12119,162.244 -96.30119,235.014 -16.144,43.24 -60.9995,65.3818 -78.5115,108.0818 -17.973,43.81 -39.137,86.24 -57.691,129.82 -21.118,49.59 -38.864,100.72 -48.079,153.86 -11.058,63.74 -9.605,129.22 -24.043,192.32 -7.128,31.16 -18.043,61.27 -28.847,91.35 -18.184,50.61 -36.149,101.4 -48.082,153.85 -8.977,39.48 -14.489,79.72 -14.43,120.21 0.039,24.91 2.348,50.29 14.43,72.11 5.343,9.66 13.191,18.48 24.043,19.24 15.859,1.1 25.937,-14.21 33.648,-28.84 13.711,-26.04 28.633,-51.41 43.281,-76.93 18.61,-32.43 36.864,-65.29 48.079,-100.97 10.296,-32.76 14.359,-67 19.23,-100.98 7.141,-49.81 16.086,-99.35 24.039,-149.04 8.75,-54.66 16.313,-109.55 28.852,-163.48 12.625,-54.3 30.3,-107.76 33.648,-163.47 0.77,-12.81 0.77,-25.65 0,-38.46 l 0,0 c -17.672,11.63 -33.461,25.89 -46.828,42.29 -17.543,21.52 -30.652,46.42 -36.762,73.52 -3.457,15.34 -4.582,31.11 -3.34,46.78 l 0,0 c 3.27,-15.25 9,-29.87 16.973,-43.27 8.133,-13.69 18.488,-25.93 30.637,-36.23 l 0,0 c -6.074,19.36 -11.645,38.86 -16.707,58.5 -12.028,46.66 -21.18,94.07 -25.082,142.09 -4.469,55.05 -2.09,111.03 -16.711,164.38 -9.09,33.17 -24.547,64.27 -33.43,97.51 -4.625,17.3 -7.426,35.04 -8.359,52.93 l 0,0 c -4.477,-2.86 -8.282,-6.67 -11.141,-11.14 -7.305,-11.44 -7.734,-25.49 -8.359,-39.02 -0.86,-18.57 -2.426,-37.12 -2.789,-55.71 -0.11,-5.57 -0.11,-11.14 0,-16.71 l 0,0 c -14.246,13.06 -23.172,30.91 -25.071,50.15 -1.574,15.95 1.809,31.8 5.571,47.36 2.769,11.45 5.773,22.92 11.14,33.43 4.254,8.33 9.91,15.87 16.719,22.29 l 0,0 c -4.777,16.96 -10.355,33.7 -16.719,50.14 -7.539,19.47 -16.176,38.54 -22.281,58.51 -4.066,13.3 -9.031,27.96 -22.289,30.63 -6.152,1.25 -12.465,-0.94 -16.723,-5.57 -6.711,-7.29 -6.629,-17.93 -5.566,-27.85 1.199,-11.24 3.211,-22.38 5.566,-33.43 4.34,-20.34 9.867,-40.52 11.153,-61.29 1.203,-19.49 -1.371,-39.03 0,-58.52 1.129,-16.01 4.898,-31.68 8.347,-47.35 5.328,-24.21 9.91,-48.6 16.723,-72.43 7.594,-26.57 17.902,-52.25 27.859,-78.01 10.918,-28.26 21.453,-56.74 27.86,-86.37 6.144,-28.4 8.398,-57.44 11.14,-86.36 2.035,-21.46 4.344,-42.9 8.36,-64.07 5.375,-28.36 13.765,-56.02 22.289,-83.59 9.648,-31.18 19.515,-62.39 33.429,-91.93 12.672,-26.91 28.579,-52.17 47.364,-75.23 l 0,0 c -0.512,18.69 -2.375,37.31 -5.571,55.73 -1.664,9.56 -2.375,20.33 5.571,25.07 5.34,3.18 12.082,1.56 16.718,-2.78 8.071,-7.57 7.793,-19.6 8.36,-30.65 1.847,-36.12 18.117,-69.26 30.64,-103.08 22.082,-59.66 32.653,-122.75 50.149,-183.88 11.648,-40.68 26.336,-80.4 41.793,-119.79 20.816,-53.06 43.058,-105.6 69.648,-156.01 28.543,-54.12 61.961,-105.54 100.289,-153.23 42.438,-52.81 90.555,-100.64 139.298,-147.66 57.21,-55.18 115.37,-109.36 172.73,-164.38 28.46,-27.28 56.72,-54.79 86.36,-80.785 51.67,-45.316 107.37,-85.906 167.16,-119.8 67.15,-38.059 139.04,-67.403 214.52,-83.578 107.16,-22.961 217.63,-18.75 325.96,-2.782 57.61,8.493 114.78,20.309 169.95,39 72.3,24.504 140.07,60.414 203.36,103.082 77.89,52.508 148.45,114.813 220.09,175.523 69.4,58.8 139.97,116.21 208.96,175.5 55.37,47.61 109.88,96.58 156,153.24 39.73,48.8 72.65,102.59 105.87,156.01 43.36,69.7 87.66,139.54 114.22,217.31 20.95,61.32 30.18,125.73 41.79,189.44 14.73,80.83 33.4,160.97 44.58,242.38 6.76,49.19 10.77,98.77 19.5,147.66 7.63,42.65 18.8,84.58 33.43,125.37 l 0,0 c 6.12,-21.83 9.86,-44.25 11.15,-66.87 1.6,-27.88 -0.51,-55.77 -2.79,-83.58 -3.35,-40.9 -7.06,-81.76 -11.14,-122.58 l 0,0 c 19.32,18.89 41.99,34.01 66.86,44.58 33.13,14.07 69.71,19.87 100.29,39 44.4,27.75 67.71,77.06 97.51,119.79 33.42,47.92 76.45,88.77 105.87,139.3 33.67,57.81 47.39,124.12 61.29,189.45 7.61,35.73 15.39,71.51 27.86,105.87 8.23,22.66 18.44,44.54 30.52,65.4 l 0,0"
         style="fill:#000000;fill-opacity:1;fill-rule:nonzero;stroke:none"
         id="path3352"
         inkscape:connector-curvature="0"
         sodipodi:nodetypes="cccccccccccccccccccccccccccccscccccccccccccccccccccccccccccccccccccccccccscccccccccccccccccccccccccscccccccccccccccccccccccccccscccccccccccccccccccccccccccsccccccccccsccccccccccsccccc" /><path
         d="m 2087.88,2975.66 c 7.67,24.09 23.68,44.38 43.43,60.14 27.18,21.71 60.11,34.18 93.58,43.46 33.79,9.36 68.59,15.65 103.6,13.37 34.41,-2.25 67.52,-12.69 100.26,-23.4 51.23,-16.77 102.2,-34.34 153.73,-50.13 39.81,-12.21 79.92,-23.35 120.31,-33.42 l 0,0 c -31.23,-0.66 -62.47,0.45 -93.58,3.34 -23.36,2.16 -46.77,5.33 -70.18,3.35 -17.02,-1.45 -33.64,-5.59 -50.13,-10.03 -35.49,-9.58 -70.67,-20.63 -106.94,-26.74 -38.75,-6.53 -78.35,-7.34 -116.97,0 -24.52,4.65 -48.53,12.59 -73.52,13.36 -14.77,0.47 -29.55,-1.62 -43.45,-6.67 -10.32,-3.76 -19.97,-9.1 -30.08,-13.37 -9.06,-3.83 -19.51,-6.25 -26.73,0 -7.31,6.32 -6.38,17.19 -3.33,26.74"
         style="fill:#000000;fill-opacity:1;fill-rule:nonzero;stroke:none"
         id="path3354"
         inkscape:connector-curvature="0" /><path
         d="m 2298.41,3005.73 c -0.03,17.12 16.1,29.64 33.42,26.73 14.68,-2.45 25.29,-15.53 23.39,-30.07 -1.88,-14.44 -15.29,-24.32 -30.07,-23.39 -14.68,0.91 -26.7,12.29 -26.74,26.73"
         style="fill:#ffffff;fill-opacity:1;fill-rule:nonzero;stroke:none"
         id="path3356"
         inkscape:connector-curvature="0" /><path
         d="m 2214.86,3049.18 c -2.18,-7.65 -2.18,-15.75 0,-23.39 2.07,-7.24 6,-13.72 10.03,-20.06 4.31,-6.78 8.77,-13.47 13.36,-20.05 l 0,0 c -8.65,6.54 -19.21,10.07 -30.07,10.03 -11.43,-0.05 -22.32,-4.03 -33.42,-6.69 -6.6,-1.59 -13.3,-2.7 -20.06,-3.34 l 0,0 c -3.08,7.49 -3.08,15.9 0,23.4 3.37,8.17 9.98,14.35 16.71,20.05 4.26,3.6 8.63,7.09 13.38,10.01 9.11,5.63 19.41,9.06 30.07,10.04 l 0,0"
         style="fill:#ffffff;fill-opacity:1;fill-rule:nonzero;stroke:none"
         id="path3358"
         inkscape:connector-curvature="0" /><path
         d="m 2435.43,3032.46 c 0.61,-7.94 -0.53,-15.92 -3.34,-23.38 -2.3,-6.13 -5.7,-11.79 -10.03,-16.71 l 0,0 c 8.89,-1.05 17.86,-1.05 26.74,0 14.79,1.75 29.03,6.36 43.45,10.02 11.02,2.79 22.18,5.02 33.42,6.69 l 0,0 c -13.62,2.25 -27.03,5.6 -40.11,10.02 -10.01,3.38 -19.83,7.39 -30.08,10.03 -6.57,1.69 -13.28,2.81 -20.05,3.33 l 0,0"
         style="fill:#ffffff;fill-opacity:1;fill-rule:nonzero;stroke:none"
         id="path3360"
         inkscape:connector-curvature="0" /><path
         d="m 2107.92,2888.77 c 12.46,13.35 33.1,11.77 50.13,3.34 13.05,-6.46 24.15,-16.15 36.76,-23.4 20.37,-11.71 43.63,-16.64 66.84,-20.05 34.34,-5.06 69.03,-7.04 103.6,-10.02 51.52,-4.45 102.8,-11.14 153.73,-20.07 l 0,0 c -25.47,-3.65 -51.13,-5.88 -76.85,-6.68 -36.8,-1.13 -73.59,0.67 -110.3,3.34 -33.5,2.45 -66.95,5.61 -100.26,10.04 -23.94,3.18 -48.64,7.45 -66.84,23.39 -10.36,9.07 -19.73,21.78 -33.42,20.05 -8.1,-1.03 -16.05,-7.6 -23.39,-3.34 -7.78,4.51 -7.01,15.88 0,23.4"
         style="fill:#000000;fill-opacity:1;fill-rule:nonzero;stroke:none"
         id="path3362"
         inkscape:connector-curvature="0" /><path
         d="m 1389.39,2872.05 c 7.11,15.79 -6.19,31.32 -20.05,43.45 -22.21,19.43 -44.06,39.65 -70.18,53.46 -37.78,19.99 -81.23,25.16 -123.66,20.06 -54.88,-6.61 -105.76,-29.78 -157.07,-50.13 -45.211,-17.93 -91.211,-33.77 -137.016,-50.12 -24.559,-8.77 -49.066,-17.68 -73.519,-26.74 l 0,0 c 27.843,0.44 55.695,0.44 83.539,0 34.55,-0.55 69.089,-1.79 103.609,-3.34 37.907,-1.71 75.787,-3.81 113.617,-6.69 47.96,-3.65 96.31,-8.52 143.72,0 18.45,3.31 36.53,8.64 53.46,16.71 13.16,6.26 27.54,13.67 40.1,6.68 6.29,-3.49 10.22,-10.23 16.71,-13.36 10.07,-4.85 22.13,-0.23 26.74,10.02"
         style="fill:#000000;fill-opacity:1;fill-rule:nonzero;stroke:none"
         id="path3364"
         inkscape:connector-curvature="0" /><path
         d="m 1095.3,2938.89 c -6.04,-10.02 -8.41,-21.84 -6.69,-33.41 1.27,-8.54 4.73,-16.6 10.03,-23.41 l 0,0 c -18.94,0 -37.88,0 -56.82,0 -21.16,0 -42.324,0 -63.488,0 l 0,0 c 13.438,7.68 26.808,15.48 40.098,23.41 14.15,8.43 28.26,17.01 43.45,23.39 10.76,4.51 21.96,7.87 33.42,10.02 l 0,0"
         style="fill:#ffffff;fill-opacity:1;fill-rule:nonzero;stroke:none"
         id="path3366"
         inkscape:connector-curvature="0" /><path
         d="m 1178.85,2895.45 c -0.22,17.73 17.86,29.64 36.76,26.74 15.81,-2.44 28.53,-14.95 26.73,-30.08 -1.8,-15.27 -17.27,-24.41 -33.42,-23.4 -15.84,0.99 -29.88,11.61 -30.07,26.74"
         style="fill:#ffffff;fill-opacity:1;fill-rule:nonzero;stroke:none"
         id="path3368"
         inkscape:connector-curvature="0" /><path
         d="m 1305.84,2928.87 c 0.57,-6.86 -0.57,-13.75 -3.34,-20.05 -2.91,-6.65 -7.52,-12.41 -13.37,-16.71 l 0,0 c 12,3.09 24.41,4.21 36.76,3.34 6.02,-0.43 12.58,-0.99 16.71,3.34 4.26,4.44 3.56,11.4 0,16.71 -3.17,4.73 -8.09,7.87 -13.37,10.03 -7.4,3.02 -15.43,4.17 -23.39,3.34 l 0,0"
         style="fill:#ffffff;fill-opacity:1;fill-rule:nonzero;stroke:none"
         id="path3370"
         inkscape:connector-curvature="0" /><path
         d="m 1382.71,2785.16 c 1.78,-8.87 -3.13,-17.35 -10.03,-23.39 -14.43,-12.64 -34.42,-14.64 -53.47,-16.72 -46.85,-5.09 -93.34,-13.41 -140.36,-16.7 -42.34,-2.97 -84.87,-1.85 -127,3.34 l 0,0 c 26.58,5.36 53.33,9.82 80.21,13.36 34.53,4.57 69.25,7.63 103.6,13.38 25.58,4.28 51.18,10.16 73.52,23.39 12.08,7.15 23.16,16.42 36.76,20.05 16.22,4.31 33.77,-1.74 36.77,-16.71"
         style="fill:#000000;fill-opacity:1;fill-rule:nonzero;stroke:none"
         id="path3372"
         inkscape:connector-curvature="0" /><path
         d="m 1389.39,2872.05 c 7.11,15.79 -6.19,31.32 -20.05,43.45 -22.21,19.43 -44.06,39.65 -70.18,53.46 -37.78,19.99 -81.23,25.16 -123.66,20.06 -54.88,-6.61 -105.76,-29.78 -157.07,-50.13 -45.211,-17.93 -91.211,-33.77 -137.016,-50.12 -24.559,-8.77 -49.066,-17.68 -73.519,-26.74 l 0,0 c 27.843,0.44 55.695,0.44 83.539,0 34.55,-0.55 69.089,-1.79 103.609,-3.34 37.907,-1.71 75.787,-3.81 113.617,-6.69 47.96,-3.65 96.31,-8.52 143.72,0 18.45,3.31 36.53,8.64 53.46,16.71 13.16,6.26 27.54,13.67 40.1,6.68 6.29,-3.49 10.22,-10.23 16.71,-13.36 10.07,-4.85 22.13,-0.23 26.74,10.02 z"
         style="fill:none;stroke:#000000;stroke-width:5;stroke-linecap:round;stroke-linejoin:round;stroke-miterlimit:10;stroke-dasharray:none;stroke-opacity:1"
         id="path3374"
         inkscape:connector-curvature="0" /><path
         d="m 1095.3,2938.89 c -6.04,-10.02 -8.41,-21.84 -6.69,-33.41 1.27,-8.54 4.73,-16.6 10.03,-23.41 l 0,0 c -18.94,0 -37.88,0 -56.82,0 -21.16,0 -42.324,0 -63.488,0 l 0,0 c 13.438,7.68 26.808,15.48 40.098,23.41 14.15,8.43 28.26,17.01 43.45,23.39 10.76,4.51 21.96,7.87 33.42,10.02 l 0,0 z"
         style="fill:none;stroke:#000000;stroke-width:5;stroke-linecap:round;stroke-linejoin:round;stroke-miterlimit:10;stroke-dasharray:none;stroke-opacity:1"
         id="path3376"
         inkscape:connector-curvature="0" /><path
         d="m 1178.85,2895.45 c -0.22,17.73 17.86,29.64 36.76,26.74 15.81,-2.44 28.53,-14.95 26.73,-30.08 -1.8,-15.27 -17.27,-24.41 -33.42,-23.4 -15.84,0.99 -29.88,11.61 -30.07,26.74 z"
         style="fill:none;stroke:#000000;stroke-width:5;stroke-linecap:round;stroke-linejoin:round;stroke-miterlimit:10;stroke-dasharray:none;stroke-opacity:1"
         id="path3378"
         inkscape:connector-curvature="0" /><path
         d="m 1305.84,2928.87 c 0.57,-6.86 -0.57,-13.75 -3.34,-20.05 -2.91,-6.65 -7.52,-12.41 -13.37,-16.71 l 0,0 c 12,3.09 24.41,4.21 36.76,3.34 6.02,-0.43 12.58,-0.99 16.71,3.34 4.26,4.44 3.56,11.4 0,16.71 -3.17,4.73 -8.09,7.87 -13.37,10.03 -7.4,3.02 -15.43,4.17 -23.39,3.34 l 0,0 z"
         style="fill:none;stroke:#000000;stroke-width:5;stroke-linecap:round;stroke-linejoin:round;stroke-miterlimit:10;stroke-dasharray:none;stroke-opacity:1"
         id="path3380"
         inkscape:connector-curvature="0" /><path
         d="m 1382.71,2785.16 c 1.78,-8.87 -3.13,-17.35 -10.03,-23.39 -14.43,-12.64 -34.42,-14.64 -53.47,-16.72 -46.85,-5.09 -93.34,-13.41 -140.36,-16.7 -42.34,-2.97 -84.87,-1.85 -127,3.34 l 0,0 c 26.58,5.36 53.33,9.82 80.21,13.36 34.53,4.57 69.25,7.63 103.6,13.38 25.58,4.28 51.18,10.16 73.52,23.39 12.08,7.15 23.16,16.42 36.76,20.05 16.22,4.31 33.77,-1.74 36.77,-16.71 z"
         style="fill:none;stroke:#000000;stroke-width:5;stroke-linecap:round;stroke-linejoin:round;stroke-miterlimit:10;stroke-dasharray:none;stroke-opacity:1"
         id="path3382"
         inkscape:connector-curvature="0" /><path
         d="m 436.645,2898.34 c 19.707,-14.79 41.273,-26.91 64.136,-36.08 23.235,-9.32 47.559,-15.48 72.16,-20.05 4.016,-0.74 8.188,-1.42 12.024,0 6.558,2.45 9.379,9.53 12.027,16.05 9.164,22.54 22.762,43.03 40.082,60.13 25.867,25.54 58.606,42.32 92.199,56.12 77.825,31.95 160.77,48.69 244.54,56.12 118.667,10.51 237.867,2.35 356.767,-4.01 64.62,-3.46 132.81,-8.26 180.39,-52.11 19.81,-18.26 33.76,-41.97 40.09,-68.15 l 0,0 c 16.92,10.17 34.31,19.53 52.11,28.06 38.06,18.21 78.18,32.6 120.26,36.08 36.84,3.04 73.87,-2.45 108.24,-16.04 l 0,0 c 0.36,17.99 7.52,35.18 20.04,48.11 16.06,16.57 38.58,24.02 60.13,32.07 60.31,22.51 117.79,52.91 180.39,68.15 56.28,13.7 114.53,14.64 172.38,16.03 89.55,2.13 179.05,5.44 268.58,8.02 69.83,2.01 141.73,3.05 204.45,-28.06 32.86,-16.3 61.14,-40.81 80.17,-72.16 9.07,-14.94 15.82,-31.15 20.04,-48.1 l 0,0 c 15.65,-4.64 31.81,-7.33 48.11,-8.02 28.54,-1.21 56.88,3.7 84.18,12.03 37.87,11.55 73.31,29.51 108.24,48.1 38.06,20.24 75.69,41.3 112.25,64.14 30.18,18.86 59.6,38.92 88.18,60.12 l 0,0 28.07,-44.09 0,0 c -21.18,-15 -42.56,-29.69 -64.15,-44.09 -34.92,-23.3 -70.43,-45.85 -108.23,-64.14 -35.55,-17.21 -72.86,-30.54 -108.24,-48.11 -27.46,-13.65 -54.06,-29.95 -84.18,-36.07 -23.74,-4.83 -48.13,-2.99 -72.16,0 -9.37,1.16 -18.73,2.5 -28.06,4 l 0,0 c 0.16,-17.37 0.16,-34.74 0,-52.11 -0.29,-33.41 -1.14,-66.83 0,-100.23 0.98,-28.52 3.23,-57.85 -8.02,-84.17 -10.26,-24.02 -30.21,-41.92 -52.11,-56.12 -33.78,-21.92 -72.21,-35.65 -112.24,-40.09 l 0,0 c 31.91,12.73 61.65,30.31 88.19,52.12 17.79,14.62 34.2,31.28 44.09,52.1 14.11,29.7 13.19,63.43 12.03,96.22 -1.27,36.07 -2.55,72.16 -4.01,108.23 -1.39,34.52 -3.23,69.95 -20.04,100.21 -15.06,27.13 -40.25,46.58 -68.15,60.14 -49.72,24.15 -105.6,29.34 -160.35,36.08 -36.03,4.43 -71.99,9.65 -108.23,12.03 -61.54,4.03 -123.23,-0.17 -184.39,-8.02 -73.15,-9.39 -145.54,-23.98 -216.48,-44.1 -52.18,-14.81 -103.96,-32.82 -148.32,-64.14 -15,-10.59 -29.25,-23.02 -36.08,-40.08 -11.95,-29.89 1.92,-61.7 12.02,-92.2 8.27,-24.94 13.75,-50.68 20.05,-76.17 8.03,-32.45 17.39,-64.54 28.06,-96.21 l 0,0 c -20.15,24.82 -37.61,51.69 -52.12,80.17 -21.8,42.83 -36.68,88.83 -44.09,136.3 l 0,0 c -13.66,8.76 -28.51,15.51 -44.1,20.04 -44.78,13.04 -92.3,7.49 -136.29,-8.01 -31.78,-11.21 -61.56,-27.45 -88.19,-48.11 l 0,0 c 2.46,-22.64 3.8,-45.38 4,-68.14 0.31,-34.92 -2.04,-69.83 -8.01,-104.24 -6.44,-37.19 -17.31,-74.07 -40.09,-104.22 -20.86,-27.63 -50,-47.23 -80.17,-64.14 -79.21,-44.41 -166.59,-71.92 -256.56,-84.18 -100.33,-13.68 -202.342,-8.23 -300.647,16.04 l 0,0 c 25.367,1.7 50.754,3.03 76.16,4 70.927,2.69 142.097,2.52 212.457,12.03 68.65,9.26 135.67,27.61 200.44,52.11 33.37,12.61 66.61,27.18 92.21,52.11 26.6,25.93 42.32,60.41 52.1,96.22 11.76,43.02 15.15,87.71 16.04,132.28 0.75,37.45 -0.63,76.13 -20.05,108.24 -14,23.16 -35.92,40.03 -60.13,52.1 -45.76,22.84 -97.4,28.25 -148.32,32.07 -65.36,4.91 -130.88,7.61 -196.43,8.03 -83.34,0.53 -166.985,-2.64 -248.535,-20.05 -57.977,-12.39 -114.508,-31.98 -164.352,-64.14 -25.234,-16.27 -48.89,-36.27 -60.129,-64.13 -9.715,-24.08 -8.652,-50.65 -4.011,-76.17 7.253,-39.9 22.863,-77.71 44.089,-112.24 15.551,-25.31 33.993,-48.65 52.121,-72.16 20.399,-26.46 40.442,-53.19 60.129,-80.17 l 0,0 c -18.41,8.9 -35.871,19.65 -52.121,32.07 -26.449,20.21 -49.398,44.63 -68.136,72.14 -16.196,23.79 -29.063,49.61 -40.09,76.18 -13.473,32.45 -24.203,65.97 -32.071,100.22 l 0,0 c -5.238,-5.4 -12.523,-8.32 -20.043,-8.02 -8.55,0.34 -16.179,4.75 -24.058,8.02 -14.492,6 -30.465,8.19 -44.09,16.03 -15.266,8.77 -26.77,24.15 -44.102,28.05 -19.339,4.37 -41.902,8.53 -36.078,24.06 l 12.032,32.07 0,0 z M 2004.04,2629.76 c 33.28,-16.9 68.21,-30.34 104.23,-40.09 69.11,-18.72 140.91,-23.62 212.46,-24.05 72.23,-0.44 144.38,3.61 216.47,8.02 21.39,1.3 42.76,2.64 64.14,4 l 0,0 c -33.24,-7.47 -66.66,-14.16 -100.21,-20.04 -46.43,-8.15 -93.18,-14.78 -140.31,-16.03 -55.02,-1.47 -109.86,4.4 -164.36,12.02 -46.86,6.55 -94.08,14.57 -136.3,36.08 -20.6,10.49 -39.51,24 -56.12,40.09 l 0,0"
         style="fill:#000000;fill-opacity:1;fill-rule:nonzero;stroke:none"
         id="path3384"
         inkscape:connector-curvature="0" /><path
         d="m 3663.6,3100.13 c 1.61,18.93 -5.18,37.61 -18.58,51.08 -10.51,10.59 -24.62,17.22 -39.48,16.27 -22.08,-1.43 -38.59,-18.32 -53.41,-34.84 -17.72,-19.76 -35.27,-39.83 -48.77,-62.7 -18.26,-30.96 -28.37,-65.72 -39.48,-99.87 -8.72,-26.82 -18.14,-53.44 -30.19,-78.95 -4.58,-9.71 -6.66,-21.28 1.72,-25.39 11.12,-5.44 18.79,9.55 22.29,25.07 2.67,11.84 8.89,22.43 13.93,33.43 11.4,24.89 16.76,51.96 25.07,78.02 10.8,33.84 26.58,65.91 47.36,94.71 11.82,16.38 25.66,31.92 44.58,39 17.59,6.59 37.32,4.84 52.93,-5.57 10.72,-7.14 18.53,-17.87 22.03,-30.26 l 0,0 z m -178.04,-515.78 c -11.58,-6.57 -23.7,-12.16 -36.22,-16.71 -8.98,-3.27 -18.29,-6.01 -27.86,-5.57 -9.79,0.45 -19,4.18 -27.85,8.36 -4.47,2.1 -9.25,4.3 -13.94,2.78 -6.5,-2.12 -9.01,-9.56 -8.36,-16.71 0.72,-7.86 4.56,-15.2 11.15,-19.52 8.92,-5.82 20.14,-4.68 30.65,-2.77 9.58,1.74 19.15,3.96 27.85,8.36 8.34,4.21 15.56,10.25 22.29,16.71 8.09,7.75 15.54,16.13 22.29,25.07 l 0,0 z m 100.29,175.52 c 7.64,28.73 15.07,57.52 22.29,86.36 7.83,31.23 14.63,65.04 -2.79,91.94 -10.31,15.93 -27.34,25.51 -44.56,33.43 -10.62,4.88 -21.77,9.31 -33.44,8.36 -7.26,-0.6 -14.24,-3.33 -19.51,-8.36 -4.64,-4.44 -7.59,-10.34 -8.35,-16.71 l 0,0 c 5.34,2 11.01,2.95 16.71,2.78 14.51,-0.44 27.59,-7.75 39,-16.71 18.31,-14.39 33.05,-33.22 39.01,-55.73 5.53,-20.88 2.83,-42.69 0,-64.07 -2.7,-20.45 -5.49,-40.87 -8.36,-61.29 l 0,0 z m -136.51,80.79 c 11.95,2.99 20.84,-9.18 25.07,-22.28 5.84,-18.08 8.84,-36.88 11.15,-55.72 2.51,-20.41 4.21,-41.14 0,-61.29 -3.88,-18.6 -12.64,-35.8 -25.08,-50.16 -10.91,-12.59 -24.37,-22.67 -39,-30.64 -10.62,-5.8 -21.83,-10.47 -33.43,-13.93 l 0,0 c 11.33,10.07 21.59,21.27 30.64,33.43 12.52,16.81 22.68,35.39 27.86,55.72 5.1,19.96 5.16,40.71 5.58,61.28 0.3,15.17 0.71,30.74 -5.58,44.59 -2.94,6.48 -7.32,12.43 -8.36,19.5 -1.28,8.68 2.97,17.45 11.15,19.5"
         style="fill:#000000;fill-opacity:1;fill-rule:nonzero;stroke:none"
         id="path3386"
         inkscape:connector-curvature="0" /><path
         d="m 1295.81,1722.41 c 15.21,-12.78 33.78,-20.9 53.48,-23.39 21.33,-2.7 42.71,1.31 63.49,6.68 34.84,8.99 68.6,21.79 103.61,30.08 29.63,7.01 59.9,10.74 90.24,13.36 43.34,3.76 86.87,5.28 130.33,3.34 41.3,-1.84 82.82,-6.77 123.65,0 22.68,3.77 44.56,11.09 66.84,16.72 45.85,11.58 93.1,15.98 140.36,16.71 38.99,0.6 78,-1.29 116.98,0 26.76,0.88 53.6,3.25 80.2,0 20.65,-2.53 42.57,-7.88 60.16,3.34 7.75,4.93 14.11,12.96 23.39,13.37 10.79,0.47 19.19,-8.87 20.05,-20.05 0.63,-8.16 -2.88,-16.24 -10.02,-20.05 -6.07,-3.25 -13.28,-2.38 -20.06,-3.35 -12.53,-1.8 -22.96,-9.65 -33.42,-16.71 -23.16,-15.66 -48.29,-28.07 -73.52,-40.1 -46.91,-22.38 -94.43,-43.58 -143.69,-60.15 -51.09,-17.19 -103.72,-29.28 -157.09,-36.77 -87.47,-12.29 -176.13,-12.14 -264.01,-3.34 -59.44,5.95 -118.39,15.83 -177.13,26.74 -25.57,4.74 -51.12,9.68 -76.87,13.37 -15.59,2.23 -31.25,3.99 -46.78,6.68 -14.02,2.42 -28.11,5.67 -40.11,13.37 -10.15,6.51 -18.16,15.85 -23.39,26.72 -4.99,10.41 -7.29,21.9 -6.69,33.43 l 0,0"
         style="fill:#000000;fill-opacity:1;fill-rule:nonzero;stroke:none"
         id="path3388"
         inkscape:connector-curvature="0" /><path
         d="m 1451.81,1676.13 c 15.77,10.13 32.58,18.54 50.14,25.08 34.73,12.92 71.65,18.3 108.66,19.5 26.93,0.86 53.86,-0.47 80.79,0 35.35,0.61 70.55,4.33 105.87,5.57 19.52,0.68 39.09,0.61 58.5,2.79 16.85,1.88 33.45,5.43 50.15,8.35 25.88,4.51 52,7.49 78.01,11.15 38.93,5.47 77.72,12.5 117.01,13.93 37.48,1.36 74.97,-2.39 111.44,-11.15 l 0,0 c -10.83,-7.9 -21.98,-15.33 -33.44,-22.28 -30.94,-18.78 -63.9,-33.93 -97.51,-47.36 -41.55,-16.62 -84.17,-30.65 -128.15,-39.01 -55.93,-10.65 -113.03,-11.96 -169.94,-11.15 -63.28,0.91 -126.51,4.44 -189.45,11.15 -35.76,3.8 -71.55,8.67 -105.87,19.5 -12.34,3.89 -24.43,8.54 -36.21,13.93 l 0,0"
         style="fill:#ffffff;fill-opacity:1;fill-rule:nonzero;stroke:none"
         id="path3390"
         inkscape:connector-curvature="0" /><path
         d="m 2585.69,1879.51 c 4.83,-21.95 6.71,-44.44 5.57,-66.87 -1.35,-26.73 -6.94,-53.09 -16.71,-78 -9.94,-25.39 -24.07,-48.93 -41.79,-69.66 l 0,0 c 4.11,18.71 8.75,37.29 13.94,55.73 5.48,19.52 11.57,38.88 16.7,58.5 5.31,20.27 9.59,40.79 13.93,61.29 2.76,13 5.55,26.01 8.36,39.01 l 0,0"
         style="fill:#000000;fill-opacity:1;fill-rule:nonzero;stroke:none"
         id="path3392"
         inkscape:connector-curvature="0" /><path
         d="m 1568.82,1456.04 c 35.48,-21.74 72.77,-40.38 111.44,-55.72 42.85,-17 87.6,-29.94 133.72,-30.64 47.77,-0.73 94.39,11.7 139.3,27.86 44.26,15.92 87.13,35.49 128.15,58.5 l 0,0 c -10.89,-9.59 -22.04,-18.88 -33.43,-27.86 -23.7,-18.71 -48.47,-36.12 -75.22,-50.14 -35.65,-18.7 -74.28,-31.1 -114.22,-36.22 -33.37,-4.28 -67.22,-3.41 -100.3,2.78 -38.46,7.19 -75.25,21.41 -108.65,41.79 -30.56,18.64 -57.85,42.16 -80.79,69.65 l 0,0"
         style="fill:#000000;fill-opacity:1;fill-rule:nonzero;stroke:none"
         id="path3394"
         inkscape:connector-curvature="0" /><path
         d="m 1192.21,2046.59 c 26.33,30.89 50.87,63.24 73.53,96.91 19.27,28.62 37.19,58.24 50.14,90.23 10.01,24.78 17.48,51.52 36.75,70.19 12.05,11.66 27.66,18.86 40.1,30.08 7.07,6.37 15,13.66 23.4,10.02 8.17,-3.54 9.06,-14.06 6.68,-23.39 -4.82,-18.95 -17.12,-34.99 -23.39,-53.47 -5.17,-15.26 -6.06,-31.87 0,-46.79 6.76,-16.64 21,-28.42 34.77,-39.87 10.14,-8.43 20.2,-16.95 30.19,-25.55 l 0,0 c -10.75,-1.91 -21.76,-1.91 -32.52,0 -14.6,2.58 -28.47,8.63 -39.48,18.58 -13.99,12.63 -22.08,30.23 -25.54,48.77 -2.57,13.81 -2.57,27.98 0,41.8 l 0,0 c -6.6,-17.92 -15.17,-35.06 -25.55,-51.09 -13.49,-20.85 -29.86,-39.6 -46.44,-58.06 -33.24,-37.03 -67.46,-73.16 -102.64,-108.36 l 0,0 z m 481.17,36.37 c -11.89,-0.63 -23.78,1.24 -34.91,5.49 -19.61,7.49 -35.53,21.77 -52.94,33.44 -19.03,12.76 -39.9,22.41 -61.29,30.64 -10.79,4.15 -21.85,7.97 -33.43,8.36 -8.08,0.27 -17.07,-0.59 -22.29,5.57 -4.57,5.39 -3.66,13.22 0,19.5 4.83,8.27 13.3,13.42 22.29,16.72 11.85,4.34 24.96,5.59 36.22,0 11.33,-5.62 18.14,-17.09 27.86,-25.07 10.4,-8.54 23.83,-12.83 33.43,-22.29 10,-9.85 14.59,-24.09 25.07,-33.43 12.57,-11.2 30.65,-12.98 44.58,-22.29 6.37,-4.26 11.66,-9.96 15.41,-16.64 l 0,0 z m 129.46,22.21 c 20.81,5.26 41.27,11.77 61.29,19.5 13.61,5.25 27.07,11.1 39,19.5 14.19,9.97 25.99,23.39 41.79,30.65 14,6.42 29.7,7.33 44.58,11.14 5.49,1.4 11.13,3.46 13.93,8.36 2.43,4.24 1.97,9.41 0,13.93 -3.55,8.16 -11.16,13.53 -19.5,16.71 -8.88,3.4 -18.5,4.42 -27.86,2.79 -16.4,-2.87 -30.06,-13.25 -41.78,-25.07 -9.74,-9.81 -18.34,-20.66 -27.87,-30.65 -9.53,-10.01 -19.96,-19.11 -30.65,-27.86 -16.97,-13.89 -34.63,-26.91 -52.93,-39 l 0,0 z m 264.66,75.22 c 9.25,6.36 17.68,13.85 25.08,22.29 10,11.38 18.07,24.44 22.3,39 5.25,18.14 4.21,37.32 0,55.71 -5.54,24.13 -16.37,46.66 -30.66,66.87 -11.92,16.86 -26.21,32.06 -36.22,50.15 -3.27,5.9 -4.95,13.13 0,16.72 5.21,3.77 11.64,-0.7 16.72,-5.58 9.55,-9.13 20.34,-16.81 30.64,-25.07 35.44,-28.43 64.71,-63.46 94.73,-97.52 32.04,-36.32 65.33,-72 89.15,-114.21 11.91,-21.11 21.26,-43.55 27.86,-66.86 l 0,0 c -13.66,17.85 -27.59,35.5 -41.79,52.93 -24.94,30.63 -50.71,60.59 -78.01,89.14 -11.8,12.35 -23.87,24.43 -36.22,36.23 l 0,0 c 4.44,-12.6 7.25,-25.71 8.36,-39.01 1.3,-15.5 0.14,-31.55 -8.36,-44.57 -6.18,-9.49 -15.59,-16.13 -25.07,-22.29 -8.75,-5.69 -17.78,-11.14 -27.86,-13.93 -10.02,-2.78 -20.62,-2.78 -30.65,0 l 0,0"
         style="fill:#000000;fill-opacity:1;fill-rule:nonzero;stroke:none"
         id="path3396"
         inkscape:connector-curvature="0" /></g></g></svg>